<svg xmlns="http://www.w3.org/2000/svg" width="172.37" height="43.269" viewBox="0 0 172.37 43.269">
    <g data-name="Group 10527">
        <g data-name="Group 10295">
            <path data-name="Path 7939" d="M565.7 372.79v-12.658a4.05 4.05 0 0 0-1.189-3.049 4.28 4.28 0 0 0-3.107-1.151 5.074 5.074 0 0 0-2.4.642 4.422 4.422 0 0 0-1.726 1.467v14.749h-4.872V344.6l4.872-1.151v10.107a7.339 7.339 0 0 1 5.121-1.688 8.07 8.07 0 0 1 5.982 2.132 8.315 8.315 0 0 1 2.129 6.128v12.662z" transform="translate(-552.405 -343.446)" style="fill:#29357f"/>
            <path data-name="Path 7940" d="M666.063 402.743a11.376 11.376 0 0 1-7.387 2.278 9.817 9.817 0 0 1-7.265-2.976q-2.672-2.744-2.672-7.66a10.742 10.742 0 0 1 2.934-7.842 10.143 10.143 0 0 1 14.052-.344 9.2 9.2 0 0 1 2.643 6.771 15.834 15.834 0 0 1-.336 3.062l-14.689-.058a5.611 5.611 0 0 0 1.938 3.864 5.9 5.9 0 0 0 4.087 1.358 6.733 6.733 0 0 0 4.875-2.106l.369-.366 2.85 2.443a14.537 14.537 0 0 1-1.399 1.576zm-12.856-9.892h10.456q-.517-5.313-5.168-5.313-4.254-.001-5.288 5.313z" transform="translate(-628.369 -375.062)" style="fill:#29357f"/>
            <path data-name="Path 7941" d="M1216.133 402.743a11.376 11.376 0 0 1-7.387 2.278 9.818 9.818 0 0 1-7.265-2.976q-2.672-2.744-2.672-7.66a10.742 10.742 0 0 1 2.934-7.842 10.142 10.142 0 0 1 14.052-.344 9.2 9.2 0 0 1 2.644 6.771 15.853 15.853 0 0 1-.336 3.062l-14.689-.058a5.611 5.611 0 0 0 1.938 3.864 5.9 5.9 0 0 0 4.087 1.358 6.733 6.733 0 0 0 4.875-2.106l.368-.366 2.85 2.443a14.568 14.568 0 0 1-1.399 1.576zm-12.856-9.892h10.456q-.517-5.313-5.168-5.313-4.254-.001-5.288 5.313z" transform="translate(-1062.128 -375.062)" style="fill:#29357f"/>
            <path data-name="Path 7942" d="M1054.388 402.743a11.376 11.376 0 0 1-7.387 2.278 9.817 9.817 0 0 1-7.265-2.976q-2.672-2.744-2.672-7.66a10.743 10.743 0 0 1 2.934-7.842 10.143 10.143 0 0 1 14.052-.344 9.2 9.2 0 0 1 2.643 6.771 15.844 15.844 0 0 1-.336 3.062l-14.689-.058a5.611 5.611 0 0 0 1.938 3.864 5.9 5.9 0 0 0 4.087 1.358 6.733 6.733 0 0 0 4.875-2.106l.369-.366 2.85 2.443a14.537 14.537 0 0 1-1.399 1.576zm-12.856-9.892h10.456q-.517-5.313-5.168-5.313-4.254-.001-5.288 5.313z" transform="translate(-934.584 -375.062)" style="fill:#29357f"/>
            <path data-name="Path 7943" d="M752.788 343.513a2.4 2.4 0 0 1 2.957 2.331v20.693a6.689 6.689 0 0 0 .6 3.106 2.4 2.4 0 0 1-2.058 3.529h-.081q-3.261 0-3.26-4.526v-22.8a2.4 2.4 0 0 1 1.842-2.333z" transform="translate(-708.968 -343.446)" style="fill:#ffd25a"/>
            <path data-name="Path 7944" d="M800.143 343.513a2.4 2.4 0 0 1 2.957 2.331v20.693a6.692 6.692 0 0 0 .6 3.106 2.4 2.4 0 0 1-2.058 3.529h-.081q-3.261 0-3.26-4.526v-22.8a2.4 2.4 0 0 1 1.842-2.333z" transform="translate(-746.31 -343.446)" style="fill:#ffd25a"/>
            <path data-name="Path 7945" d="M832.954 393.871a10.866 10.866 0 0 1 2.714-7.652 10.438 10.438 0 0 1 14.432-.119 12.908 12.908 0 0 1-.048 15.573 10.484 10.484 0 0 1-14.5-.029 11.276 11.276 0 0 1-2.598-7.773zm4.987 0q0 6.789 4.891 6.789a4.2 4.2 0 0 0 3.558-1.765 8.294 8.294 0 0 0 1.314-5.025q0-6.693-4.871-6.693a4.229 4.229 0 0 0-3.567 1.764 8.067 8.067 0 0 0-1.325 4.93z" transform="translate(-773.633 -374.845)" style="fill:#29357f"/>
            <path data-name="Path 7946" d="M942.98 403.671v8.573h-4.795v-28.6h4.795v1.381a6.09 6.09 0 0 1 4.43-1.765q9.819 0 9.82 10.817 0 5.045-2.714 7.768a10 10 0 0 1-7.413 2.723 9.331 9.331 0 0 1-4.123-.897zm0-15v10.8a4.7 4.7 0 0 0 3.049 1.055q3.318 0 4.766-1.582t1.448-5q0-3.644-1.438-5.131t-4.756-1.486a4.225 4.225 0 0 0-3.069 1.346z" transform="translate(-856.613 -374.845)" style="fill:#29357f"/>
            <path data-name="Path 7947" d="M1133.319 366.761h-2.378v-3.855h2.378v-4.181l4.795-1.765v5.945h5.639v3.855h-5.639v9a5.3 5.3 0 0 0 .69 3.117 2.852 2.852 0 0 0 2.416.911 5.947 5.947 0 0 0 3.222-.94v4.411a15.268 15.268 0 0 1-4.756.575 6.2 6.2 0 0 1-4.718-1.736 6.888 6.888 0 0 1-1.65-4.939z" transform="translate(-1008.611 -354.103)" style="fill:#29357f"/>
            <path data-name="Path 7948" d="M1313.707 388.117a5.033 5.033 0 0 0-2.819-.844 3.826 3.826 0 0 0-2.963 1.515 5.5 5.5 0 0 0-1.295 3.7v11.7h-4.795v-20.539h4.795v1.88a6.812 6.812 0 0 1 5.351-2.263 7.665 7.665 0 0 1 3.759.748z" transform="translate(-1143.37 -374.845)" style="fill:#29357f"/>
            <g data-name="Group 10294">
                <path data-name="Path 7949" d="M750.442 499.8a2.212 2.212 0 0 0-3.031.406 13.62 13.62 0 0 1-21.078.128 2.213 2.213 0 0 0-3.015-.385 2.2 2.2 0 0 0-.4 3.175 18.027 18.027 0 0 0 27.935-.163 2.2 2.2 0 0 0-.412-3.16z" transform="translate(-686.469 -466.402)" style="fill:#ffd25a"/>
            </g>
        </g>
    </g>
</svg>
